<?xml version="1.0" encoding="UTF-8"?>
<svg id="Layer_1" data-name="Layer 1" xmlns="http://www.w3.org/2000/svg" viewBox="0 0 372.53 428.4">
  <path fill="#3C83F6" d="M104.19,387.4c18.33-2.06,36.55-8.46,47.43-24.07,6.39-9.17,10.74-20.93,12.56-31.93-.67-.73-9.41,5.67-10.98,6.51-53.87,29.22-121.88,5.57-145.2-50.84-24.52-59.31,9.53-124.99,71.18-140.18,2.35-.58,11.84-1.51,11.97-2.98-24.74-56.79,7.59-123.68,67.04-140.01,84.03-23.07,156.53,60.36,123.03,140.01l1.64,1.31c68.32,8.55,108.56,80.78,80.79,144.14-24.22,55.27-91.38,77.37-144.49,48.55-1.56-.85-10.31-7.24-10.98-6.51,3.09,18.15,12.95,38.89,29.95,47.54,8.8,4.48,20.21,7.54,30.05,8.45v41c-31.21-1.87-63.78-15.35-81.51-42-1.94-.49-6.41,7.27-7.97,9.01-18.34,20.45-47.46,31.22-74.51,32.99v-41ZM179.99,41.69c-44.8,4.47-70.03,53.94-47.82,93.23,12.9,22.81,39.23,28.06,53,50l1.51.47c14.04-21.54,41.6-28.4,54.03-50.98,24.44-44.41-10.37-97.74-60.72-92.72ZM92.95,185.65c-15.33,1.92-31.89,12.81-40.57,25.43-35.59,51.76,16.68,116.99,74.8,93.8,65.24-26.03,42.52-128.84-34.23-119.23ZM258.95,185.65c-42.67,5.37-65.32,55.96-44.18,92.66,27.23,47.27,99.78,38.88,114.13-13.7,12.36-45.29-23.82-84.76-69.96-78.96Z"/>
</svg>