<?xml version="1.0" encoding="UTF-8"?>
<svg id="Layer_1" data-name="Layer 1" xmlns="http://www.w3.org/2000/svg" viewBox="0 0 416.66 370.05">
  <defs>
    <style>
      .cls-1 {
        fill: #fff;
      }
    </style>
  </defs>
  <path class="cls-1" d="M106.88.37C13.3,7.32-32.87,115.75,26.57,188.08l181.01,181.97,181.53-181.46c85.73-107.49-47.21-245.5-157.94-163.94l-23.57,24.41C185.98,17.37,145.34-2.49,106.88.37Z"/>
  <path d="M106.76.37c37.12-2.78,75.75,15.43,98.15,44.93,1.21,1.45,2.19,2.32,3.28,2.13.86-.1,1.68-.91,2.4-1.56,93.82-116.33,267.72,11.13,183.84,135.58-1.96,2.87-4.06,5.66-5.83,7.72-26.86,26.32-107.12,107.49-141.07,141.05-21.15,20.96-34.31,34.6-39.96,39.82-1.26-.81-6.54-6.66-15.79-15.76-45.68-46.62-157.39-156.83-168.38-170.22C-31.56,112.33,16.08,6.47,106.56.38l.21-.02ZM102.72,42.11c-53.7,5.86-80.86,77.63-45.54,118.52,38.23,38.72,136.47,137.94,147.66,149.29,3.77,3.78,10.87-5.43,14.01-7.83,46.04-42.86,88.63-89.57,132.97-134.29,37.01-32.61,27.69-96.79-16.42-118.37-41.17-21.9-95.64,3.12-105.01,49.26-.66,3.01-.93,6.24-1.22,9.37-.34,3.23-.35,6.76-4.34,6.48-6.56.08-25.26.21-32.35.25-2.66.1-4.36-.72-5.04-3.92-3.19-43.64-40.9-74.43-84.52-68.79l-.21.03Z"/>
</svg>