<svg width="16" height="22" viewBox="0 0 16 22" fill="none" xmlns="http://www.w3.org/2000/svg">
<mask id="path-1-inside-1_57_200" fill="white">
<path d="M16 14.1309L8 21.1318L0 14.1318V0H16V14.1309Z"/>
</mask>
<path d="M16 14.1309L16.6586 14.8834L17 14.5846V14.1309H16ZM8 21.1318L7.3415 21.8844L8.00005 22.4606L8.65856 21.8844L8 21.1318ZM0 14.1318H-1V14.5856L-0.658505 14.8844L0 14.1318ZM0 0V-1H-1V0H0ZM16 0H17V-1H16V0ZM16 14.1309L15.3414 13.3783L7.34144 20.3793L8 21.1318L8.65856 21.8844L16.6586 14.8834L16 14.1309ZM8 21.1318L8.6585 20.3793L0.658505 13.3793L0 14.1318L-0.658505 14.8844L7.3415 21.8844L8 21.1318ZM0 14.1318H1V0H0H-1V14.1318H0ZM0 0V1H16V0V-1H0V0ZM16 0H15V14.1309H16H17V0H16Z" fill="#3C83F6" mask="url(#path-1-inside-1_57_200)"/>
<path d="M6.81888 12V5H8.43888V12H6.81888Z" fill="#3C83F6"/>
</svg>
