<?xml version="1.0" encoding="UTF-8"?>
<svg id="Layer_1" data-name="Layer 1" xmlns="http://www.w3.org/2000/svg" viewBox="0 0 374.23 409.13">
  <path d="M105.5,368.21c18.33-2.06,36.55-8.45,47.43-24.02,6.39-9.15,10.74-20.89,12.56-31.86l-15.32,9.16C47.4,370.13-47.34,247.37,25.99,160.6L187.14,0l160.87,159.6c73.84,85.77-21.53,209.78-122.19,161.87-1.89-.9-15.68-9.84-16.32-9.16,2.81,16.32,12.09,36.95,26.98,45.42,9.73,5.54,21.85,9.3,33.02,10.46v40.92c-22.4-1.92-48.62-9.74-66.01-24.44-6.51-5.5-10.9-12.68-16.97-18.48-15.88,27.83-50.62,39.92-81.02,42.92v-40.92ZM208.51,228.48c-.72,52.11,60.68,81.08,101.47,47.89,26.97-21.94,30.4-62.39,8.03-88.82L187.14,57.89,56.52,188.08c-37.3,46.94,3.33,113.76,62.82,100.62,26.98-5.96,48.4-32.43,47.15-60.23h42.01Z"/>
</svg>